<?xml version="1.0" standalone="no"?>
<!DOCTYPE svg PUBLIC "-//W3C//DTD SVG 20010904//EN"
 "http://www.w3.org/TR/2001/REC-SVG-20010904/DTD/svg10.dtd">
<svg version="1.0" xmlns="http://www.w3.org/2000/svg"
 width="512.000000pt" height="512.000000pt" viewBox="0 0 512.000000 512.000000"
 preserveAspectRatio="xMidYMid meet">
<metadata>
Created by potrace 1.14, written by Peter Selinger 2001-2017
</metadata>
<g transform="translate(0.000000,512.000000) scale(0.100000,-0.100000)"
fill="#000000" stroke="none">
<path d="M1575 5102 c-96 -40 -150 -115 -161 -218 -3 -32 -6 -60 -8 -61 -1 -1
-70 -3 -154 -4 -164 -1 -234 -13 -322 -53 -157 -72 -281 -237 -308 -409 -13
-84 -14 -3862 -1 -3922 40 -181 187 -345 367 -407 l67 -23 1505 0 1505 0 65
23 c186 68 324 224 363 412 21 101 23 3869 2 3954 -45 185 -191 342 -374 403
-32 11 -104 17 -228 20 l-183 5 0 52 c0 97 -60 184 -155 227 -38 17 -93 18
-990 18 -869 0 -953 -2 -990 -17z m1836 -304 c0 -13 1 -79 1 -148 l0 -125
-850 -3 -850 -2 0 150 0 150 849 0 849 0 1 -22z m-2000 -315 c1 -58 7 -82 35
-132 29 -54 71 -90 132 -114 39 -16 124 -17 980 -17 615 0 950 4 974 10 55 16
119 69 150 125 15 27 26 52 26 55 0 3 0 29 1 58 l1 54 163 -4 c182 -4 203 -10
269 -80 75 -78 70 73 66 -2045 l-3 -1898 -21 -45 c-26 -54 -71 -101 -122 -126
-36 -18 -95 -19 -1507 -19 -1417 0 -1471 1 -1505 19 -49 26 -103 86 -123 137
-17 41 -18 157 -15 1954 l3 1910 22 45 c27 55 60 92 104 117 52 28 72 31 227
32 l142 1 1 -37z"/>
<path d="M2005 3701 c-16 -10 -106 -96 -200 -190 -93 -94 -174 -171 -178 -171
-5 0 -26 18 -47 40 -72 75 -144 95 -213 58 -64 -34 -93 -114 -66 -185 14 -38
226 -251 268 -269 42 -18 73 -18 114 -1 48 21 523 500 537 542 42 126 -105
246 -215 176z"/>
<path d="M2565 3412 c-121 -40 -137 -208 -26 -270 l40 -22 575 2 c563 3 575 3
602 24 49 36 67 69 67 123 1 55 -17 88 -67 125 -27 21 -39 21 -599 23 -315 1
-581 -2 -592 -5z"/>
<path d="M2042 2640 c-40 -9 -35 -5 -244 -214 l-168 -168 -60 56 c-63 58 -104
74 -161 62 -94 -18 -146 -125 -103 -209 9 -18 67 -82 129 -144 137 -135 179
-153 264 -108 35 18 521 508 522 526 0 8 2 23 5 34 21 99 -80 189 -184 165z"/>
<path d="M2550 2404 c-41 -17 -79 -67 -87 -117 -8 -53 28 -122 78 -148 38 -19
57 -19 613 -17 563 3 575 3 602 24 49 36 67 69 67 123 1 55 -17 88 -67 125
-27 21 -39 21 -599 23 -485 2 -577 0 -607 -13z"/>
<path d="M2042 1640 c-40 -9 -36 -6 -244 -214 l-168 -168 -60 55 c-64 60 -103
74 -164 63 -68 -13 -116 -75 -116 -151 0 -50 18 -74 147 -202 136 -135 178
-153 262 -108 29 15 521 506 521 521 1 5 3 25 6 45 14 98 -83 181 -184 159z"/>
<path d="M2550 1407 c-105 -50 -116 -191 -22 -262 26 -19 45 -20 607 -23 l580
-2 39 22 c94 55 101 183 13 249 l-32 24 -580 2 c-433 1 -586 -1 -605 -10z"/>
</g>
</svg>
